{
	"asset":{
		"generator":"Khronos glTF Blender I/O v3.6.27",
		"version":"2.0"
	},
	"extensionsUsed":[
		"KHR_materials_specular",
		"KHR_materials_ior"
	],
	"scene":0,
	"scenes":[
		{
			"name":"Scene",
			"nodes":[
				0
			]
		}
	],
	"nodes":[
		{
			"mesh":0,
			"name":"TQ_ARD-node"
		}
	],
	"materials":[
		{
			"doubleSided":true,
			"extensions":{
				"KHR_materials_specular":{
					"specularColorFactor":[
						0,
						0,
						0
					]
				},
				"KHR_materials_ior":{
					"ior":0
				}
			},
			"name":"back-dil",
			"pbrMetallicRoughness":{
				"baseColorTexture":{
					"index":0
				},
				"metallicFactor":0,
				"roughnessFactor":0.5
			}
		},
		{
			"doubleSided":true,
			"extensions":{
				"KHR_materials_specular":{
					"specularColorFactor":[
						0,
						0,
						0
					]
				},
				"KHR_materials_ior":{
					"ior":0
				}
			},
			"name":"TQ_ARD_back",
			"pbrMetallicRoughness":{
				"baseColorFactor":[
					0.996078372001648,
					0.9019607901573181,
					0.6627451181411743,
					1
				],
				"metallicFactor":0,
				"roughnessFactor":0.5
			}
		},
		{
			"doubleSided":true,
			"extensions":{
				"KHR_materials_specular":{
					"specularColorFactor":[
						0,
						0,
						0
					]
				},
				"KHR_materials_ior":{
					"ior":0
				}
			},
			"name":"TQ_ARD_edge",
			"pbrMetallicRoughness":{
				"baseColorTexture":{
					"index":1
				},
				"metallicFactor":0,
				"roughnessFactor":0.5
			}
		}
	],
	"meshes":[
		{
			"name":"TQ_ARD-geom",
			"primitives":[
				{
					"attributes":{
						"POSITION":0,
						"NORMAL":1,
						"TEXCOORD_0":2
					},
					"indices":3,
					"material":0
				},
				{
					"attributes":{
						"POSITION":4,
						"NORMAL":5,
						"TEXCOORD_0":6
					},
					"indices":7,
					"material":1
				},
				{
					"attributes":{
						"POSITION":8,
						"NORMAL":9,
						"TEXCOORD_0":10
					},
					"indices":11,
					"material":2
				}
			]
		}
	],
	"textures":[
		{
			"sampler":0,
			"source":0
		},
		{
			"sampler":0,
			"source":1
		}
	],
	"images":[
		{
			"bufferView":4,
			"mimeType":"image/jpeg",
			"name":"2"
		},
		{
			"bufferView":13,
			"mimeType":"image/png",
			"name":"TQ_ARD-I1"
		}
	],
	"accessors":[
		{
			"bufferView":0,
			"componentType":5126,
			"count":996,
			"max":[
				0.08095677196979523,
				0.3204306364059448,
				0.12515707314014435
			],
			"min":[
				-0.08422085642814636,
				0.0035241544246673584,
				-0.12001647055149078
			],
			"type":"VEC3"
		},
		{
			"bufferView":1,
			"componentType":5126,
			"count":996,
			"type":"VEC3"
		},
		{
			"bufferView":2,
			"componentType":5126,
			"count":996,
			"type":"VEC2"
		},
		{
			"bufferView":3,
			"componentType":5123,
			"count":2523,
			"type":"SCALAR"
		},
		{
			"bufferView":5,
			"componentType":5126,
			"count":882,
			"max":[
				0.07905455678701401,
				0.3172575533390045,
				0.1231609433889389
			],
			"min":[
				-0.08231869339942932,
				0.005347207188606262,
				-0.11811427772045135
			],
			"type":"VEC3"
		},
		{
			"bufferView":6,
			"componentType":5126,
			"count":882,
			"type":"VEC3"
		},
		{
			"bufferView":7,
			"componentType":5126,
			"count":882,
			"type":"VEC2"
		},
		{
			"bufferView":8,
			"componentType":5123,
			"count":2523,
			"type":"SCALAR"
		},
		{
			"bufferView":9,
			"componentType":5126,
			"count":487,
			"max":[
				0.08095677196979523,
				0.3204306364059448,
				0.1242036446928978
			],
			"min":[
				-0.08422085642814636,
				0.0035241544246673584,
				-0.11898080259561539
			],
			"type":"VEC3"
		},
		{
			"bufferView":10,
			"componentType":5126,
			"count":487,
			"type":"VEC3"
		},
		{
			"bufferView":11,
			"componentType":5126,
			"count":487,
			"type":"VEC2"
		},
		{
			"bufferView":12,
			"componentType":5123,
			"count":1098,
			"type":"SCALAR"
		}
	],
	"bufferViews":[
		{
			"buffer":0,
			"byteLength":11952,
			"byteOffset":0,
			"target":34962
		},
		{
			"buffer":0,
			"byteLength":11952,
			"byteOffset":11952,
			"target":34962
		},
		{
			"buffer":0,
			"byteLength":7968,
			"byteOffset":23904,
			"target":34962
		},
		{
			"buffer":0,
			"byteLength":5046,
			"byteOffset":31872,
			"target":34963
		},
		{
			"buffer":0,
			"byteLength":523163,
			"byteOffset":36920
		},
		{
			"buffer":0,
			"byteLength":10584,
			"byteOffset":560084,
			"target":34962
		},
		{
			"buffer":0,
			"byteLength":10584,
			"byteOffset":570668,
			"target":34962
		},
		{
			"buffer":0,
			"byteLength":7056,
			"byteOffset":581252,
			"target":34962
		},
		{
			"buffer":0,
			"byteLength":5046,
			"byteOffset":588308,
			"target":34963
		},
		{
			"buffer":0,
			"byteLength":5844,
			"byteOffset":593356,
			"target":34962
		},
		{
			"buffer":0,
			"byteLength":5844,
			"byteOffset":599200,
			"target":34962
		},
		{
			"buffer":0,
			"byteLength":3896,
			"byteOffset":605044,
			"target":34962
		},
		{
			"buffer":0,
			"byteLength":2196,
			"byteOffset":608940,
			"target":34963
		},
		{
			"buffer":0,
			"byteLength":767,
			"byteOffset":611136
		}
	],
	"samplers":[
		{
			"magFilter":9729,
			"minFilter":9987
		}
	],
	"buffers":[
		{
			"byteLength":611904,
			"uri":"data:application/octet-stream;base64,"
		}
	]
}
